<svg xmlns="http://www.w3.org/2000/svg" width="900" height="420" viewBox="0 0 900 420" font-family="Arial, Helvetica, sans-serif">
<rect width="900" height="420" fill="#ffffff"/>
<text x="450" y="28" text-anchor="middle" font-size="18" font-weight="bold" fill="#222222">Puntaje de Performance en 5 corridas — catálogo nuevo, GitHub Pages (línea punteada = mediana)</text>
<line x1="50" y1="60" x2="50" y2="370" stroke="#d9d9d9"/><line x1="50" y1="370" x2="860" y2="370" stroke="#d9d9d9"/><line x1="50" y1="304.24242424242425" x2="860" y2="304.24242424242425" stroke="#d9d9d9" stroke-dasharray="4,4"/><text x="42" y="308.24242424242425" text-anchor="end" font-size="11" fill="#222222">60</text><line x1="50" y1="210.3030303030303" x2="860" y2="210.3030303030303" stroke="#d9d9d9" stroke-dasharray="4,4"/><text x="42" y="214.3030303030303" text-anchor="end" font-size="11" fill="#222222">70</text><line x1="50" y1="116.36363636363635" x2="860" y2="116.36363636363635" stroke="#d9d9d9" stroke-dasharray="4,4"/><text x="42" y="120.36363636363635" text-anchor="end" font-size="11" fill="#222222">80</text><text x="50" y="390" text-anchor="middle" font-size="11" fill="#222222">corrida 1</text><text x="252.5" y="390" text-anchor="middle" font-size="11" fill="#222222">corrida 2</text><text x="455" y="390" text-anchor="middle" font-size="11" fill="#222222">corrida 3</text><text x="657.5" y="390" text-anchor="middle" font-size="11" fill="#222222">corrida 4</text><text x="860" y="390" text-anchor="middle" font-size="11" fill="#222222">corrida 5</text><polyline points="50,219.6969696969697 252.5,276.06060606060606 455,229.0909090909091 657.5,266.6666666666667 860,266.6666666666667" fill="none" stroke="#3b6fd1" stroke-width="2"/><circle cx="50" cy="219.6969696969697" r="4" fill="#3b6fd1"/><circle cx="252.5" cy="276.06060606060606" r="4" fill="#3b6fd1"/><circle cx="455" cy="229.0909090909091" r="4" fill="#3b6fd1"/><circle cx="657.5" cy="266.6666666666667" r="4" fill="#3b6fd1"/><circle cx="860" cy="266.6666666666667" r="4" fill="#3b6fd1"/><line x1="50" y1="266.6666666666667" x2="860" y2="266.6666666666667" stroke="#3b6fd1" stroke-dasharray="6,3" opacity="0.5"/><text x="862" y="270.6666666666667" font-size="10" fill="#3b6fd1">mediana 64</text><polyline points="50,153.93939393939394 252.5,153.93939393939394 455,163.33333333333334 657.5,163.33333333333334 860,163.33333333333334" fill="none" stroke="#d1893b" stroke-width="2"/><circle cx="50" cy="153.93939393939394" r="4" fill="#d1893b"/><circle cx="252.5" cy="153.93939393939394" r="4" fill="#d1893b"/><circle cx="455" cy="163.33333333333334" r="4" fill="#d1893b"/><circle cx="657.5" cy="163.33333333333334" r="4" fill="#d1893b"/><circle cx="860" cy="163.33333333333334" r="4" fill="#d1893b"/><line x1="50" y1="163.33333333333334" x2="860" y2="163.33333333333334" stroke="#d1893b" stroke-dasharray="6,3" opacity="0.5"/><text x="862" y="167.33333333333334" font-size="10" fill="#d1893b">mediana 75</text><circle cx="700" cy="45" r="4" fill="#3b6fd1"/><text x="710" y="49" font-size="11" fill="#222222">escritorio</text><circle cx="780" cy="45" r="4" fill="#d1893b"/><text x="790" y="49" font-size="11" fill="#222222">móvil</text>
</svg>